<svg width="21" height="21" viewBox="0 0 21 21" fill="none" xmlns="http://www.w3.org/2000/svg">
<path d="M18.75 0H2.25C1.00734 0 0 1.00734 0 2.25V18.75C0 19.9927 1.00734 21 2.25 21H18.75C19.9927 21 21 19.9927 21 18.75V2.25C21 1.00734 19.9927 0 18.75 0ZM4.40625 18C4.07658 18 3.7942 17.7716 3.72113 17.455L3.01809 14.4081C2.98102 14.2475 3.00158 14.0789 3.07619 13.9319C3.15079 13.7848 3.27469 13.6687 3.42623 13.6037L6.70739 12.1975C6.84755 12.1375 7.00344 12.1246 7.15156 12.1609C7.29967 12.1971 7.43199 12.2806 7.52855 12.3986L8.98153 14.1744C11.2758 13.098 13.1205 11.228 14.1744 8.98163L12.3985 7.52864C12.2805 7.43208 12.197 7.29976 12.1608 7.15165C12.1245 7.00354 12.1374 6.84765 12.1974 6.70748L13.6037 3.42633C13.6686 3.27478 13.7848 3.15088 13.9318 3.07628C14.0788 3.00168 14.2474 2.98111 14.4081 3.01819L17.4549 3.72122C17.6099 3.75694 17.7481 3.84412 17.8471 3.96854C17.9461 4.09295 18 4.24725 18 4.40625C18 11.9199 11.9088 18 4.40625 18Z" fill="#393185"/>
</svg>
