<svg width="22" height="21" viewBox="0 0 22 21" fill="none" xmlns="http://www.w3.org/2000/svg">
<path d="M11 7.99969C10.482 7.99987 9.97565 8.14667 9.54502 8.42152C9.1144 8.69637 8.77882 9.08693 8.58071 9.54382C8.38261 10.0007 8.33088 10.5034 8.43206 10.9884C8.53324 11.4733 8.78279 11.9187 9.14915 12.2683C9.51552 12.6179 9.98225 12.8559 10.4903 12.9523C10.9984 13.0487 11.525 12.9992 12.0036 12.8099C12.4822 12.6206 12.8912 12.3002 13.179 11.889C13.4668 11.4778 13.6204 10.9945 13.6204 10.5C13.6198 9.83687 13.3436 9.20105 12.8522 8.73223C12.3609 8.26341 11.6947 7.99994 11 7.99969ZM17.1242 6.07781C16.9908 5.75524 16.7894 5.46226 16.5326 5.21705C16.2757 4.97184 15.9687 4.77963 15.6308 4.65234C14.5996 4.26375 12.1442 4.35094 11 4.35094C9.8558 4.35094 7.4029 4.26047 6.36871 4.65234C6.03077 4.77963 5.72384 4.97184 5.46695 5.21705C5.21007 5.46226 5.0087 5.75524 4.87536 6.07781C4.46875 7.06219 4.5596 9.40828 4.5596 10.4995C4.5596 11.5908 4.46875 13.9341 4.87732 14.9217C5.01067 15.2443 5.21203 15.5373 5.46892 15.7825C5.7258 16.0277 6.03273 16.2199 6.37067 16.3472C7.40192 16.7358 9.85728 16.6486 11.002 16.6486C12.1467 16.6486 14.5986 16.7391 15.6328 16.3472C15.9707 16.2199 16.2776 16.0277 16.5345 15.7825C16.7914 15.5373 16.9928 15.2443 17.1261 14.9217C17.5362 13.9373 17.4419 11.5913 17.4419 10.5C17.4419 9.40875 17.5362 7.06594 17.1261 6.07828L17.1242 6.07781ZM11 14.3438C10.2036 14.3438 9.42504 14.1183 8.76284 13.696C8.10064 13.2736 7.58451 12.6733 7.27974 11.9709C6.97496 11.2686 6.89521 10.4957 7.05059 9.75012C7.20596 9.00451 7.58948 8.31962 8.15263 7.78206C8.71579 7.2445 9.43329 6.87842 10.2144 6.73011C10.9955 6.58179 11.8052 6.65791 12.541 6.94884C13.2768 7.23976 13.9057 7.73243 14.3482 8.36453C14.7906 8.99663 15.0268 9.73978 15.0268 10.5C15.0274 11.0049 14.9237 11.505 14.7216 11.9717C14.5194 12.4383 14.2229 12.8623 13.8488 13.2193C13.4748 13.5764 13.0306 13.8595 12.5417 14.0524C12.0529 14.2454 11.529 14.3444 11 14.3438ZM15.1928 7.39219C15.0069 7.39228 14.8251 7.33974 14.6704 7.24121C14.5158 7.14268 14.3953 7.0026 14.3241 6.83866C14.2528 6.67473 14.2342 6.49432 14.2704 6.32026C14.3066 6.14619 14.3961 5.98628 14.5275 5.86076C14.6589 5.73524 14.8264 5.64974 15.0087 5.61509C15.1911 5.58043 15.3801 5.59817 15.5519 5.66606C15.7236 5.73395 15.8704 5.84895 15.9737 5.9965C16.077 6.14405 16.1322 6.31753 16.1322 6.495C16.1327 6.61285 16.1088 6.72964 16.062 6.83866C16.0151 6.94769 15.9461 7.04681 15.859 7.13034C15.7719 7.21387 15.6684 7.28016 15.5544 7.32542C15.4404 7.37067 15.3182 7.394 15.1947 7.39406L15.1928 7.39219ZM19.6429 0H2.35714C1.73199 0 1.13244 0.237053 0.690391 0.65901C0.248341 1.08097 0 1.65326 0 2.25L0 18.75C0 19.3467 0.248341 19.919 0.690391 20.341C1.13244 20.7629 1.73199 21 2.35714 21H19.6429C20.268 21 20.8676 20.7629 21.3096 20.341C21.7517 19.919 22 19.3467 22 18.75V2.25C22 1.65326 21.7517 1.08097 21.3096 0.65901C20.8676 0.237053 20.268 0 19.6429 0ZM18.8021 13.5938C18.7388 14.7952 18.4515 15.8597 17.5327 16.7344C16.6139 17.6091 15.4997 17.8889 14.2425 17.9461C12.9456 18.0159 9.05732 18.0159 7.7604 17.9461C6.50179 17.8856 5.39049 17.6109 4.47022 16.7344C3.54996 15.8578 3.26071 14.7928 3.2008 13.5938C3.12763 12.3553 3.12763 8.64328 3.2008 7.40625C3.26415 6.20484 3.54799 5.14031 4.47022 4.26562C5.39246 3.39094 6.5067 3.11438 7.7604 3.05719C9.05732 2.98734 12.9456 2.98734 14.2425 3.05719C15.5012 3.11766 16.6159 3.39234 17.5327 4.26891C18.4496 5.14547 18.7422 6.21047 18.8021 7.41187C18.8753 8.64563 18.8753 12.3544 18.8021 13.5938Z" fill="#393185"/>
</svg>
