<svg width="21" height="21" viewBox="0 0 21 21" fill="none" xmlns="http://www.w3.org/2000/svg">
<path d="M10.5 4.25625C7.09219 4.25625 4.32188 7.02656 4.31719 10.4344C4.31719 11.6016 4.64531 12.7406 5.26406 13.7203L5.40938 13.9547L4.78594 16.2328L7.125 15.6188L7.35 15.7547C8.29688 16.3172 9.38437 16.6172 10.4953 16.6172H10.5C13.9031 16.6172 16.7484 13.8469 16.7484 10.4391C16.7484 8.78906 16.0359 7.2375 14.8688 6.07031C13.6969 4.89844 12.15 4.25625 10.5 4.25625ZM14.1328 13.0875C13.9781 13.5234 13.2375 13.9172 12.8812 13.9688C12.2906 14.0578 11.8313 14.0109 10.6547 13.5047C8.79375 12.6984 7.575 10.8234 7.48125 10.7016C7.3875 10.5797 6.72187 9.69375 6.72187 8.77969C6.72187 7.86563 7.2 7.41562 7.37344 7.22812C7.54219 7.04062 7.74375 6.99375 7.87031 6.99375C7.99219 6.99375 8.11875 6.99375 8.22656 6.99844C8.33906 7.00313 8.49375 6.95625 8.64375 7.31719C8.79844 7.6875 9.16875 8.60156 9.21563 8.69531C9.2625 8.78906 9.29531 8.89687 9.22969 9.01875C8.87344 9.73125 8.49375 9.70312 8.68594 10.0312C9.40312 11.2641 10.1203 11.6906 11.2125 12.2391C11.4 12.3328 11.5078 12.3188 11.6156 12.1922C11.7234 12.0703 12.0797 11.6484 12.2016 11.4656C12.3234 11.2781 12.45 11.3109 12.6188 11.3719C12.7875 11.4328 13.7016 11.8828 13.8891 11.9766C14.0766 12.0703 14.1984 12.1172 14.2453 12.1922C14.2875 12.2812 14.2875 12.6563 14.1328 13.0875ZM18.75 0H2.25C1.00781 0 0 1.00781 0 2.25V18.75C0 19.9922 1.00781 21 2.25 21H18.75C19.9922 21 21 19.9922 21 18.75V2.25C21 1.00781 19.9922 0 18.75 0ZM10.4953 17.8688C9.24844 17.8688 8.025 17.5547 6.94219 16.9641L3 18L4.05469 14.1469C3.40313 13.0219 3.06094 11.7422 3.06094 10.4297C3.06563 6.33281 6.39844 3 10.4953 3C12.4828 3 14.3484 3.77344 15.7547 5.17969C17.1562 6.58594 18 8.45156 18 10.4391C18 14.5359 14.5922 17.8688 10.4953 17.8688Z" fill="#393185"/>
</svg>
